<?xml version="1.0" encoding="UTF-8" standalone="no"?>
<svg xmlns="http://www.w3.org/2000/svg" width="980" height="800" viewBox="0 0 980 800" version="1.1">
  <!-- Background with subtle gradient -->
  <defs>
    <linearGradient id="bg_gradient" x1="0%" y1="0%" x2="0%" y2="100%">
      <stop offset="0%" style="stop-color:#F8FBFE;stop-opacity:1" />
      <stop offset="100%" style="stop-color:#EDF7FD;stop-opacity:1" />
    </linearGradient>
  </defs>
  <rect width="980" height="800" fill="url(#bg_gradient)" opacity="0.95"/>
  
  <!-- Title and Subtitle -->
  <text x="490" y="40" font-family="Arial, sans-serif" font-size="28" font-weight="bold" text-anchor="middle" fill="#00539C">JSONdb Architecture</text>
  <text x="490" y="70" font-family="Arial, sans-serif" font-size="16" font-style="italic" text-anchor="middle" fill="#666666">High-performance JSON database with JavaScript integration</text>
  
  <!-- Client Layer -->
  <rect x="190" y="100" width="600" height="70" rx="10" ry="10" fill="#E1F5FE" stroke="#00539C" stroke-width="2"/>
  <text x="490" y="130" font-family="Arial, sans-serif" font-size="18" font-weight="bold" text-anchor="middle" fill="#00539C">Client Applications</text>
  
  <!-- Client modules -->
  <rect x="220" y="145" width="100" height="30" rx="15" ry="15" fill="#B3E5FC" stroke="#00539C" stroke-width="1"/>
  <text x="270" y="165" font-family="Arial, sans-serif" font-size="12" font-weight="bold" text-anchor="middle" fill="#00539C">REST Clients</text>
  
  <rect x="340" y="145" width="100" height="30" rx="15" ry="15" fill="#B3E5FC" stroke="#00539C" stroke-width="1"/>
  <text x="390" y="165" font-family="Arial, sans-serif" font-size="12" font-weight="bold" text-anchor="middle" fill="#00539C">Web UI</text>
  
  <rect x="460" y="145" width="100" height="30" rx="15" ry="15" fill="#B3E5FC" stroke="#00539C" stroke-width="1"/>
  <text x="510" y="165" font-family="Arial, sans-serif" font-size="12" font-weight="bold" text-anchor="middle" fill="#00539C">SDK</text>
  
  <rect x="580" y="145" width="100" height="30" rx="15" ry="15" fill="#B3E5FC" stroke="#00539C" stroke-width="1"/>
  <text x="630" y="165" font-family="Arial, sans-serif" font-size="12" font-weight="bold" text-anchor="middle" fill="#00539C">CLI</text>
  
  <!-- API Layer -->
  <rect x="190" y="190" width="600" height="90" rx="10" ry="10" fill="#B3E5FC" stroke="#00539C" stroke-width="2"/>
  <text x="490" y="215" font-family="Arial, sans-serif" font-size="18" font-weight="bold" text-anchor="middle" fill="#00539C">API Layer</text>
  
  <!-- API modules -->
  <rect x="220" y="230" width="110" height="35" rx="5" ry="5" fill="#81D4FA" stroke="#00539C" stroke-width="1"/>
  <text x="275" y="252" font-family="Arial, sans-serif" font-size="14" font-weight="bold" text-anchor="middle" fill="#00539C">REST API</text>
  
  <rect x="350" y="230" width="130" height="35" rx="5" ry="5" fill="#81D4FA" stroke="#00539C" stroke-width="1"/>
  <text x="415" y="252" font-family="Arial, sans-serif" font-size="14" font-weight="bold" text-anchor="middle" fill="#00539C">JWT Authentication</text>
  
  <rect x="500" y="230" width="110" height="35" rx="5" ry="5" fill="#81D4FA" stroke="#00539C" stroke-width="1"/>
  <text x="555" y="252" font-family="Arial, sans-serif" font-size="14" font-weight="bold" text-anchor="middle" fill="#00539C">CORS</text>
  
  <rect x="630" y="230" width="110" height="35" rx="5" ry="5" fill="#81D4FA" stroke="#00539C" stroke-width="1"/>
  <text x="685" y="252" font-family="Arial, sans-serif" font-size="14" font-weight="bold" text-anchor="middle" fill="#00539C">RBAC</text>
  
  <!-- Core Server Components -->
  <rect x="190" y="300" width="600" height="150" rx="10" ry="10" fill="#81D4FA" stroke="#00539C" stroke-width="2"/>
  <text x="490" y="325" font-family="Arial, sans-serif" font-size="18" font-weight="bold" text-anchor="middle" fill="#00539C">Core Server</text>
  
  <!-- Server Modules Row 1 -->
  <rect x="210" y="340" width="130" height="45" rx="5" ry="5" fill="#4FC3F7" stroke="#00539C" stroke-width="1"/>
  <text x="275" y="365" font-family="Arial, sans-serif" font-size="14" font-weight="bold" text-anchor="middle" fill="#00539C">Thread Pool</text>
  <text x="275" y="380" font-family="Arial, sans-serif" font-size="10" text-anchor="middle" fill="#00539C">Worker Threading</text>
  
  <rect x="350" y="340" width="130" height="45" rx="5" ry="5" fill="#4FC3F7" stroke="#00539C" stroke-width="1"/>
  <text x="415" y="365" font-family="Arial, sans-serif" font-size="14" font-weight="bold" text-anchor="middle" fill="#00539C">Socket Handling</text>
  <text x="415" y="380" font-family="Arial, sans-serif" font-size="10" text-anchor="middle" fill="#00539C">Connection Management</text>
  
  <rect x="490" y="340" width="130" height="45" rx="5" ry="5" fill="#4FC3F7" stroke="#00539C" stroke-width="1"/>
  <text x="555" y="365" font-family="Arial, sans-serif" font-size="14" font-weight="bold" text-anchor="middle" fill="#00539C">Configuration</text>
  <text x="555" y="380" font-family="Arial, sans-serif" font-size="10" text-anchor="middle" fill="#00539C">Environment Variables</text>
  
  <rect x="630" y="340" width="130" height="45" rx="5" ry="5" fill="#4FC3F7" stroke="#00539C" stroke-width="1"/>
  <text x="695" y="365" font-family="Arial, sans-serif" font-size="14" font-weight="bold" text-anchor="middle" fill="#00539C">Daemon Mode</text>
  <text x="695" y="380" font-family="Arial, sans-serif" font-size="10" text-anchor="middle" fill="#00539C">Process Management</text>
  
  <!-- Server Modules Row 2 -->
  <rect x="210" y="395" width="130" height="45" rx="5" ry="5" fill="#4FC3F7" stroke="#00539C" stroke-width="1"/>
  <text x="275" y="420" font-family="Arial, sans-serif" font-size="14" font-weight="bold" text-anchor="middle" fill="#00539C">Process Forking</text>
  <text x="275" y="435" font-family="Arial, sans-serif" font-size="10" text-anchor="middle" fill="#00539C">Child Process Handling</text>
  
  <rect x="350" y="395" width="130" height="45" rx="5" ry="5" fill="#4FC3F7" stroke="#00539C" stroke-width="1"/>
  <text x="415" y="420" font-family="Arial, sans-serif" font-size="14" font-weight="bold" text-anchor="middle" fill="#00539C">Signal Handling</text>
  <text x="415" y="435" font-family="Arial, sans-serif" font-size="10" text-anchor="middle" fill="#00539C">Graceful Shutdown</text>
  
  <rect x="490" y="395" width="130" height="45" rx="5" ry="5" fill="#4FC3F7" stroke="#00539C" stroke-width="1"/>
  <text x="555" y="420" font-family="Arial, sans-serif" font-size="14" font-weight="bold" text-anchor="middle" fill="#00539C">Error Handling</text>
  <text x="555" y="435" font-family="Arial, sans-serif" font-size="10" text-anchor="middle" fill="#00539C">Error Propagation</text>
  
  <rect x="630" y="395" width="130" height="45" rx="5" ry="5" fill="#4FC3F7" stroke="#00539C" stroke-width="1"/>
  <text x="695" y="420" font-family="Arial, sans-serif" font-size="14" font-weight="bold" text-anchor="middle" fill="#00539C">Resource Cleanup</text>
  <text x="695" y="435" font-family="Arial, sans-serif" font-size="10" text-anchor="middle" fill="#00539C">Memory Management</text>
  
  <!-- JavaScript Integration Layer -->
  <rect x="190" y="470" width="600" height="90" rx="10" ry="10" fill="#4DD0E1" stroke="#00539C" stroke-width="2"/>
  <text x="490" y="495" font-family="Arial, sans-serif" font-size="18" font-weight="bold" text-anchor="middle" fill="#00539C">JavaScript Integration (QuickJS)</text>
  
  <!-- JS modules -->
  <rect x="210" y="510" width="130" height="35" rx="5" ry="5" fill="#26C6DA" stroke="#00539C" stroke-width="1"/>
  <text x="275" y="532" font-family="Arial, sans-serif" font-size="14" font-weight="bold" text-anchor="middle" fill="#00539C">Validators</text>
  
  <rect x="350" y="510" width="130" height="35" rx="5" ry="5" fill="#26C6DA" stroke="#00539C" stroke-width="1"/>
  <text x="415" y="532" font-family="Arial, sans-serif" font-size="14" font-weight="bold" text-anchor="middle" fill="#00539C">Transformers</text>
  
  <rect x="490" y="510" width="130" height="35" rx="5" ry="5" fill="#26C6DA" stroke="#00539C" stroke-width="1"/>
  <text x="555" y="532" font-family="Arial, sans-serif" font-size="14" font-weight="bold" text-anchor="middle" fill="#00539C">Custom Functions</text>
  
  <rect x="630" y="510" width="130" height="35" rx="5" ry="5" fill="#26C6DA" stroke="#00539C" stroke-width="1"/>
  <text x="695" y="532" font-family="Arial, sans-serif" font-size="14" font-weight="bold" text-anchor="middle" fill="#00539C">Query Engine</text>
  
  <!-- Database Engine Layer -->
  <rect x="190" y="580" width="600" height="90" rx="10" ry="10" fill="#26C6DA" stroke="#00539C" stroke-width="2"/>
  <text x="490" y="605" font-family="Arial, sans-serif" font-size="18" font-weight="bold" text-anchor="middle" fill="#00539C">Database Engine</text>
  
  <!-- DB modules -->
  <rect x="210" y="620" width="110" height="35" rx="5" ry="5" fill="#00BCD4" stroke="#00539C" stroke-width="1"/>
  <text x="265" y="642" font-family="Arial, sans-serif" font-size="14" font-weight="bold" text-anchor="middle" fill="#00539C">Collections</text>
  
  <rect x="330" y="620" width="110" height="35" rx="5" ry="5" fill="#00BCD4" stroke="#00539C" stroke-width="1"/>
  <text x="385" y="642" font-family="Arial, sans-serif" font-size="14" font-weight="bold" text-anchor="middle" fill="#00539C">Documents</text>
  
  <rect x="450" y="620" width="110" height="35" rx="5" ry="5" fill="#00BCD4" stroke="#00539C" stroke-width="1"/>
  <text x="505" y="642" font-family="Arial, sans-serif" font-size="14" font-weight="bold" text-anchor="middle" fill="#00539C">Transactions</text>
  
  <rect x="570" y="620" width="110" height="35" rx="5" ry="5" fill="#00BCD4" stroke="#00539C" stroke-width="1"/>
  <text x="625" y="642" font-family="Arial, sans-serif" font-size="14" font-weight="bold" text-anchor="middle" fill="#00539C">Caching</text>
  
  <!-- Connection lines (with arrows) -->
  <!-- Client to API -->
  <line x1="490" y1="170" x2="490" y2="180" stroke="#00539C" stroke-width="2"/>
  <polygon points="490,190 485,180 495,180" fill="#00539C"/>
  
  <!-- API to Core -->
  <line x1="490" y1="280" x2="490" y2="290" stroke="#00539C" stroke-width="2"/>
  <polygon points="490,300 485,290 495,290" fill="#00539C"/>
  
  <!-- Core to JavaScript -->
  <line x1="490" y1="450" x2="490" y2="460" stroke="#00539C" stroke-width="2"/>
  <polygon points="490,470 485,460 495,460" fill="#00539C"/>
  
  <!-- JavaScript to Database -->
  <line x1="490" y1="560" x2="490" y2="570" stroke="#00539C" stroke-width="2"/>
  <polygon points="490,580 485,570 495,570" fill="#00539C"/>
  
  <!-- Cross-Component Communications -->
  <path d="M 160,380 C 140,380 140,495 160,495" stroke="#00539C" stroke-width="1.5" stroke-dasharray="5,3" fill="none"/>
  <polygon points="170,495 160,490 160,500" fill="#00539C"/>
  <text x="125" y="440" font-family="Arial, sans-serif" font-size="10" text-anchor="middle" fill="#00539C" transform="rotate(-90 125,440)">Engine Callbacks</text>
  
  <path d="M 820,380 C 840,380 840,495 820,495" stroke="#00539C" stroke-width="1.5" stroke-dasharray="5,3" fill="none"/>
  <polygon points="810,495 820,490 820,500" fill="#00539C"/>
  <text x="855" y="440" font-family="Arial, sans-serif" font-size="10" text-anchor="middle" fill="#00539C" transform="rotate(90 855,440)">Event Notifications</text>
  
  <!-- Additional Components with better styling -->
  <!-- Logging System -->
  <rect x="50" y="330" width="100" height="140" rx="5" ry="5" fill="#E0F7FA" stroke="#00539C" stroke-width="1.5"/>
  <text x="100" y="350" font-family="Arial, sans-serif" font-size="14" font-weight="bold" text-anchor="middle" fill="#00539C">Logging</text>
  <line x1="70" y1="360" x2="130" y2="360" stroke="#00539C" stroke-width="1"/>
  <text x="100" y="375" font-family="Arial, sans-serif" font-size="10" text-anchor="middle" fill="#00539C">Error Logs</text>
  <text x="100" y="395" font-family="Arial, sans-serif" font-size="10" text-anchor="middle" fill="#00539C">Access Logs</text>
  <text x="100" y="415" font-family="Arial, sans-serif" font-size="10" text-anchor="middle" fill="#00539C">Audit Logs</text>
  <text x="100" y="435" font-family="Arial, sans-serif" font-size="10" text-anchor="middle" fill="#00539C">Debug Logs</text>
  <line x1="150" y1="375" x2="190" y2="375" stroke="#00539C" stroke-width="1"/>
  <polygon points="190,375 185,372 185,378" fill="#00539C"/>
  
  <!-- Security System -->
  <rect x="50" y="490" width="100" height="100" rx="5" ry="5" fill="#E0F7FA" stroke="#00539C" stroke-width="1.5"/>
  <text x="100" y="510" font-family="Arial, sans-serif" font-size="14" font-weight="bold" text-anchor="middle" fill="#00539C">Security</text>
  <line x1="70" y1="520" x2="130" y2="520" stroke="#00539C" stroke-width="1"/>
  <text x="100" y="535" font-family="Arial, sans-serif" font-size="10" text-anchor="middle" fill="#00539C">Encryption</text>
  <text x="100" y="555" font-family="Arial, sans-serif" font-size="10" text-anchor="middle" fill="#00539C">Token Validation</text>
  <text x="100" y="575" font-family="Arial, sans-serif" font-size="10" text-anchor="middle" fill="#00539C">Auth Monitoring</text>
  <line x1="150" y1="535" x2="190" y2="535" stroke="#00539C" stroke-width="1"/>
  <polygon points="190,535 185,532 185,538" fill="#00539C"/>
  
  <!-- Metrics System -->
  <rect x="830" y="330" width="100" height="140" rx="5" ry="5" fill="#E0F7FA" stroke="#00539C" stroke-width="1.5"/>
  <text x="880" y="350" font-family="Arial, sans-serif" font-size="14" font-weight="bold" text-anchor="middle" fill="#00539C">Metrics</text>
  <line x1="850" y1="360" x2="910" y2="360" stroke="#00539C" stroke-width="1"/>
  <text x="880" y="375" font-family="Arial, sans-serif" font-size="10" text-anchor="middle" fill="#00539C">Performance</text>
  <text x="880" y="395" font-family="Arial, sans-serif" font-size="10" text-anchor="middle" fill="#00539C">Usage Stats</text>
  <text x="880" y="415" font-family="Arial, sans-serif" font-size="10" text-anchor="middle" fill="#00539C">System Health</text>
  <text x="880" y="435" font-family="Arial, sans-serif" font-size="10" text-anchor="middle" fill="#00539C">Query Analytics</text>
  <line x1="790" y1="375" x2="830" y2="375" stroke="#00539C" stroke-width="1"/>
  <polygon points="790,375 795,372 795,378" fill="#00539C"/>
  
  <!-- Visualization -->
  <rect x="830" y="490" width="100" height="100" rx="5" ry="5" fill="#E0F7FA" stroke="#00539C" stroke-width="1.5"/>
  <text x="880" y="510" font-family="Arial, sans-serif" font-size="14" font-weight="bold" text-anchor="middle" fill="#00539C">Visualization</text>
  <line x1="850" y1="520" x2="910" y2="520" stroke="#00539C" stroke-width="1"/>
  <text x="880" y="535" font-family="Arial, sans-serif" font-size="10" text-anchor="middle" fill="#00539C">Dashboards</text>
  <text x="880" y="555" font-family="Arial, sans-serif" font-size="10" text-anchor="middle" fill="#00539C">Transaction Views</text>
  <text x="880" y="575" font-family="Arial, sans-serif" font-size="10" text-anchor="middle" fill="#00539C">Admin Interface</text>
  <line x1="790" y1="535" x2="830" y2="535" stroke="#00539C" stroke-width="1"/>
  <polygon points="790,535 795,532 795,538" fill="#00539C"/>
  
  <!-- Legend -->
  <rect x="340" y="720" width="300" height="25" rx="5" ry="5" fill="#FFFFFF" stroke="#00539C" stroke-width="1"/>
  
  <rect x="350" y="725" width="15" height="15" fill="#E1F5FE" stroke="#00539C" stroke-width="1"/>
  <text x="390" y="737" font-family="Arial, sans-serif" font-size="10" text-anchor="middle" fill="#00539C">Client Layer</text>
  
  <rect x="430" y="725" width="15" height="15" fill="#B3E5FC" stroke="#00539C" stroke-width="1"/>
  <text x="470" y="737" font-family="Arial, sans-serif" font-size="10" text-anchor="middle" fill="#00539C">API Layer</text>
  
  <rect x="510" y="725" width="15" height="15" fill="#81D4FA" stroke="#00539C" stroke-width="1"/>
  <text x="550" y="737" font-family="Arial, sans-serif" font-size="10" text-anchor="middle" fill="#00539C">Core Layer</text>
  
  <rect x="590" y="725" width="15" height="15" fill="#4DD0E1" stroke="#00539C" stroke-width="1"/>
  <text x="630" y="737" font-family="Arial, sans-serif" font-size="10" text-anchor="middle" fill="#00539C">Data Layers</text>
  
  <!-- Sample data flow description -->
  <rect x="190" y="755" width="600" height="30" rx="5" ry="5" fill="none" stroke="#00539C" stroke-width="1" stroke-dasharray="5,3"/>
  <text x="490" y="775" font-family="Arial, sans-serif" font-size="12" font-weight="bold" text-anchor="middle" fill="#00539C">Data Flow: Client → API → Core Server → JavaScript → Database Engine</text>
</svg>